STARTFONT 2.1
COMMENT
COMMENT Converted from OpenType font "Exo-SemiBold.ttf" by "otf2bdf3\otf2bdf 3.0".
COMMENT
FONT -FreeType-Exo SemiBold-Medium-R-Normal--14-90-112-112-P-68-ISO10646-1
SIZE 9 112 112
FONTBOUNDINGBOX 17 17 0 -4
STARTPROPERTIES 19
FOUNDRY "FreeType"
FAMILY_NAME "Exo SemiBold"
WEIGHT_NAME "Medium"
SLANT "R"
SETWIDTH_NAME "Normal"
ADD_STYLE_NAME ""
PIXEL_SIZE 14
POINT_SIZE 90
RESOLUTION_X 112
RESOLUTION_Y 112
SPACING "P"
AVERAGE_WIDTH 68
CHARSET_REGISTRY "ISO10646"
CHARSET_ENCODING "1"
FONT_ASCENT 14
FONT_DESCENT 4
COPYRIGHT "Copyright 2017 The Exo Project Authors (https://github.com/NDISCOVER/Exo-1.0)"
_OTF_FONTFILE "Exo-SemiBold.ttf"
_OTF_PSNAME "Exo-SemiBold"
ENDPROPERTIES
CHARS 190
STARTCHAR 0020
ENCODING 32
SWIDTH 285 0
DWIDTH 4 0
BBX 0 0 0 0
BITMAP
ENDCHAR
STARTCHAR 0021
ENCODING 33
SWIDTH 285 0
DWIDTH 4 0
BBX 2 10 1 0
BITMAP
C0
C0
C0
C0
C0
C0
C0
00
C0
C0
ENDCHAR
STARTCHAR 0022
ENCODING 34
SWIDTH 357 0
DWIDTH 5 0
BBX 4 4 0 7
BITMAP
D0
50
50
50
ENDCHAR
STARTCHAR 0023
ENCODING 35
SWIDTH 714 0
DWIDTH 10 0
BBX 10 10 0 0
BITMAP
0900
1B00
1200
7FC0
1200
1200
FF80
3400
2400
2400
ENDCHAR
STARTCHAR 0024
ENCODING 36
SWIDTH 642 0
DWIDTH 9 0
BBX 6 13 1 -1
BITMAP
10
20
FC
C0
80
C0
FC
7C
04
04
9C
FC
10
ENDCHAR
STARTCHAR 0025
ENCODING 37
SWIDTH 928 0
DWIDTH 13 0
BBX 12 10 1 0
BITMAP
F080
8900
8900
8A00
F600
05F0
0910
0910
1110
21F0
ENDCHAR
STARTCHAR 0026
ENCODING 38
SWIDTH 714 0
DWIDTH 10 0
BBX 8 10 1 0
BITMAP
7C
60
60
60
70
D9
8A
8C
FE
F3
ENDCHAR
STARTCHAR 0027
ENCODING 39
SWIDTH 214 0
DWIDTH 3 0
BBX 2 4 0 7
BITMAP
C0
40
40
40
ENDCHAR
STARTCHAR 0028
ENCODING 40
SWIDTH 357 0
DWIDTH 5 0
BBX 4 15 1 -3
BITMAP
30
60
60
40
C0
C0
C0
C0
C0
C0
C0
40
60
60
30
ENDCHAR
STARTCHAR 0029
ENCODING 41
SWIDTH 357 0
DWIDTH 5 0
BBX 4 15 0 -3
BITMAP
C0
60
20
30
30
30
10
10
10
30
30
30
20
60
C0
ENDCHAR
STARTCHAR 002A
ENCODING 42
SWIDTH 428 0
DWIDTH 6 0
BBX 5 4 1 6
BITMAP
60
F8
50
F0
ENDCHAR
STARTCHAR 002B
ENCODING 43
SWIDTH 642 0
DWIDTH 9 0
BBX 6 6 1 2
BITMAP
10
10
FC
FC
10
10
ENDCHAR
STARTCHAR 002C
ENCODING 44
SWIDTH 214 0
DWIDTH 3 0
BBX 1 3 1 -1
BITMAP
80
80
80
ENDCHAR
STARTCHAR 002D
ENCODING 45
SWIDTH 357 0
DWIDTH 5 0
BBX 5 2 0 3
BITMAP
F8
F8
ENDCHAR
STARTCHAR 002E
ENCODING 46
SWIDTH 214 0
DWIDTH 3 0
BBX 1 2 1 0
BITMAP
80
80
ENDCHAR
STARTCHAR 002F
ENCODING 47
SWIDTH 428 0
DWIDTH 6 0
BBX 6 12 0 -1
BITMAP
0C
08
18
18
10
30
30
20
60
60
40
C0
ENDCHAR
STARTCHAR 0030
ENCODING 48
SWIDTH 642 0
DWIDTH 9 0
BBX 7 10 1 0
BITMAP
FE
C6
C6
C6
C6
C6
C6
C6
FE
7C
ENDCHAR
STARTCHAR 0031
ENCODING 49
SWIDTH 357 0
DWIDTH 5 0
BBX 4 10 0 0
BITMAP
F0
B0
30
30
30
30
30
30
30
30
ENDCHAR
STARTCHAR 0032
ENCODING 50
SWIDTH 571 0
DWIDTH 8 0
BBX 7 10 1 0
BITMAP
FC
0C
04
0C
0C
18
30
60
FE
FE
ENDCHAR
STARTCHAR 0033
ENCODING 51
SWIDTH 571 0
DWIDTH 8 0
BBX 6 10 1 0
BITMAP
FC
0C
0C
0C
78
3C
04
04
FC
FC
ENDCHAR
STARTCHAR 0034
ENCODING 52
SWIDTH 642 0
DWIDTH 9 0
BBX 8 10 0 0
BITMAP
1C
18
30
36
66
66
FF
7F
06
06
ENDCHAR
STARTCHAR 0035
ENCODING 53
SWIDTH 642 0
DWIDTH 9 0
BBX 7 10 1 0
BITMAP
FE
C0
C0
C0
FC
C6
06
06
0E
FC
ENDCHAR
STARTCHAR 0036
ENCODING 54
SWIDTH 642 0
DWIDTH 9 0
BBX 7 10 1 0
BITMAP
7C
E0
C0
C0
FC
C6
C6
C6
FE
7C
ENDCHAR
STARTCHAR 0037
ENCODING 55
SWIDTH 571 0
DWIDTH 8 0
BBX 7 10 0 0
BITMAP
FE
06
06
0C
0C
18
18
18
30
30
ENDCHAR
STARTCHAR 0038
ENCODING 56
SWIDTH 642 0
DWIDTH 9 0
BBX 7 10 1 0
BITMAP
FC
C6
C6
C6
7C
EE
C6
C6
C6
7C
ENDCHAR
STARTCHAR 0039
ENCODING 57
SWIDTH 642 0
DWIDTH 9 0
BBX 7 10 1 0
BITMAP
FC
CC
86
C6
FE
7E
06
04
1C
F8
ENDCHAR
STARTCHAR 003A
ENCODING 58
SWIDTH 214 0
DWIDTH 3 0
BBX 1 8 1 0
BITMAP
80
80
00
00
00
00
80
80
ENDCHAR
STARTCHAR 003B
ENCODING 59
SWIDTH 214 0
DWIDTH 3 0
BBX 1 9 1 -1
BITMAP
80
80
00
00
00
00
80
80
80
ENDCHAR
STARTCHAR 003C
ENCODING 60
SWIDTH 642 0
DWIDTH 9 0
BBX 6 6 1 2
BITMAP
04
1C
F0
E0
3C
04
ENDCHAR
STARTCHAR 003D
ENCODING 61
SWIDTH 642 0
DWIDTH 9 0
BBX 6 6 1 2
BITMAP
FC
FC
00
00
FC
FC
ENDCHAR
STARTCHAR 003E
ENCODING 62
SWIDTH 642 0
DWIDTH 9 0
BBX 6 6 1 2
BITMAP
80
F0
3C
1C
F0
80
ENDCHAR
STARTCHAR 003F
ENCODING 63
SWIDTH 500 0
DWIDTH 7 0
BBX 6 10 1 0
BITMAP
F8
98
0C
08
18
70
60
00
60
60
ENDCHAR
STARTCHAR 0040
ENCODING 64
SWIDTH 857 0
DWIDTH 12 0
BBX 10 12 1 -2
BITMAP
3F80
00C0
1840
FF40
8340
8F40
BB40
B340
BF40
9940
8040
FFC0
ENDCHAR
STARTCHAR 0041
ENCODING 65
SWIDTH 714 0
DWIDTH 10 0
BBX 9 10 0 0
BITMAP
1C00
1C00
1600
3600
3200
2300
7F00
7F00
6180
C180
ENDCHAR
STARTCHAR 0042
ENCODING 66
SWIDTH 642 0
DWIDTH 9 0
BBX 7 10 1 0
BITMAP
FC
C6
C6
C6
FC
C6
C6
C6
FE
FC
ENDCHAR
STARTCHAR 0043
ENCODING 67
SWIDTH 571 0
DWIDTH 8 0
BBX 7 10 1 0
BITMAP
7E
C0
C0
80
80
80
C0
C0
E6
7E
ENDCHAR
STARTCHAR 0044
ENCODING 68
SWIDTH 642 0
DWIDTH 9 0
BBX 8 10 1 0
BITMAP
FE
C6
C3
C3
C3
C3
C3
C2
FE
FC
ENDCHAR
STARTCHAR 0045
ENCODING 69
SWIDTH 571 0
DWIDTH 8 0
BBX 7 10 1 0
BITMAP
FE
C0
C0
C0
FC
FC
C0
C0
FE
7E
ENDCHAR
STARTCHAR 0046
ENCODING 70
SWIDTH 571 0
DWIDTH 8 0
BBX 7 10 1 0
BITMAP
FE
C0
C0
C0
FC
FC
C0
C0
C0
C0
ENDCHAR
STARTCHAR 0047
ENCODING 71
SWIDTH 642 0
DWIDTH 9 0
BBX 7 10 1 0
BITMAP
7E
C0
C0
80
8E
8E
C2
C2
FE
7A
ENDCHAR
STARTCHAR 0048
ENCODING 72
SWIDTH 714 0
DWIDTH 10 0
BBX 8 10 1 0
BITMAP
C3
C3
C3
C3
FF
FF
C3
C3
C3
C3
ENDCHAR
STARTCHAR 0049
ENCODING 73
SWIDTH 285 0
DWIDTH 4 0
BBX 2 10 1 0
BITMAP
C0
C0
C0
C0
C0
C0
C0
C0
C0
C0
ENDCHAR
STARTCHAR 004A
ENCODING 74
SWIDTH 428 0
DWIDTH 6 0
BBX 5 10 0 0
BITMAP
18
18
18
18
18
18
18
18
B8
F0
ENDCHAR
STARTCHAR 004B
ENCODING 75
SWIDTH 642 0
DWIDTH 9 0
BBX 8 10 1 0
BITMAP
C6
C4
CC
C8
F8
F8
CC
CC
C6
C7
ENDCHAR
STARTCHAR 004C
ENCODING 76
SWIDTH 500 0
DWIDTH 7 0
BBX 6 10 1 0
BITMAP
C0
C0
C0
C0
C0
C0
C0
C0
FC
7C
ENDCHAR
STARTCHAR 004D
ENCODING 77
SWIDTH 857 0
DWIDTH 12 0
BBX 10 10 1 0
BITMAP
6180
6180
61C0
F3C0
D2C0
D2C0
DEC0
CEC0
CC40
8C40
ENDCHAR
STARTCHAR 004E
ENCODING 78
SWIDTH 714 0
DWIDTH 10 0
BBX 8 10 1 0
BITMAP
C3
E3
E3
F3
DB
CB
CF
C7
C3
C3
ENDCHAR
STARTCHAR 004F
ENCODING 79
SWIDTH 714 0
DWIDTH 10 0
BBX 8 10 1 0
BITMAP
7E
C7
C3
83
83
83
C3
C3
EE
7E
ENDCHAR
STARTCHAR 0050
ENCODING 80
SWIDTH 642 0
DWIDTH 9 0
BBX 7 10 1 0
BITMAP
FC
C6
C6
C6
C6
FE
F8
C0
C0
C0
ENDCHAR
STARTCHAR 0051
ENCODING 81
SWIDTH 714 0
DWIDTH 10 0
BBX 8 13 1 -3
BITMAP
7E
C7
C3
83
83
83
C3
C3
EE
7E
08
0E
06
ENDCHAR
STARTCHAR 0052
ENCODING 82
SWIDTH 642 0
DWIDTH 9 0
BBX 7 10 1 0
BITMAP
FC
C6
C6
C6
C6
FC
CC
CC
C6
C6
ENDCHAR
STARTCHAR 0053
ENCODING 83
SWIDTH 571 0
DWIDTH 8 0
BBX 6 10 1 0
BITMAP
FC
C0
80
C0
FC
7C
04
04
9C
FC
ENDCHAR
STARTCHAR 0054
ENCODING 84
SWIDTH 571 0
DWIDTH 8 0
BBX 8 10 0 0
BITMAP
FF
18
18
18
18
18
18
18
18
18
ENDCHAR
STARTCHAR 0055
ENCODING 85
SWIDTH 714 0
DWIDTH 10 0
BBX 8 10 1 0
BITMAP
C3
C3
C3
C3
C3
C3
C3
C3
FE
7C
ENDCHAR
STARTCHAR 0056
ENCODING 86
SWIDTH 714 0
DWIDTH 10 0
BBX 9 10 0 0
BITMAP
C180
6180
6100
2300
3300
3200
1600
1E00
1C00
0C00
ENDCHAR
STARTCHAR 0057
ENCODING 87
SWIDTH 1000 0
DWIDTH 14 0
BBX 14 10 0 0
BITMAP
C30C
6318
6798
6798
2490
24B0
3CF0
38F0
3860
1860
ENDCHAR
STARTCHAR 0058
ENCODING 88
SWIDTH 642 0
DWIDTH 9 0
BBX 9 10 0 0
BITMAP
E380
6300
3600
1C00
1C00
1C00
1600
3600
6300
E380
ENDCHAR
STARTCHAR 0059
ENCODING 89
SWIDTH 642 0
DWIDTH 9 0
BBX 8 10 0 0
BITMAP
C3
63
26
36
34
1C
18
18
18
18
ENDCHAR
STARTCHAR 005A
ENCODING 90
SWIDTH 571 0
DWIDTH 8 0
BBX 6 10 1 0
BITMAP
FC
0C
0C
18
30
30
60
C0
FC
FC
ENDCHAR
STARTCHAR 005B
ENCODING 91
SWIDTH 357 0
DWIDTH 5 0
BBX 3 15 1 -3
BITMAP
60
E0
C0
C0
C0
C0
C0
C0
C0
C0
C0
C0
C0
E0
60
ENDCHAR
STARTCHAR 005C
ENCODING 92
SWIDTH 428 0
DWIDTH 6 0
BBX 6 12 0 -1
BITMAP
C0
40
60
60
20
30
30
10
18
18
08
0C
ENDCHAR
STARTCHAR 005D
ENCODING 93
SWIDTH 357 0
DWIDTH 5 0
BBX 4 15 0 -3
BITMAP
E0
E0
30
30
30
30
30
30
30
30
30
30
30
60
E0
ENDCHAR
STARTCHAR 005E
ENCODING 94
SWIDTH 357 0
DWIDTH 5 0
BBX 4 2 1 7
BITMAP
60
90
ENDCHAR
STARTCHAR 005F
ENCODING 95
SWIDTH 642 0
DWIDTH 9 0
BBX 9 2 0 -3
BITMAP
FF80
FF80
ENDCHAR
STARTCHAR 0060
ENCODING 96
SWIDTH 214 0
DWIDTH 3 0
BBX 3 2 0 9
BITMAP
C0
60
ENDCHAR
STARTCHAR 0061
ENCODING 97
SWIDTH 571 0
DWIDTH 8 0
BBX 6 8 1 0
BITMAP
70
FC
0C
0C
FC
8C
8C
FC
ENDCHAR
STARTCHAR 0062
ENCODING 98
SWIDTH 571 0
DWIDTH 8 0
BBX 7 11 1 0
BITMAP
C0
C0
C0
D8
FC
C4
C4
C6
C4
CC
FC
ENDCHAR
STARTCHAR 0063
ENCODING 99
SWIDTH 500 0
DWIDTH 7 0
BBX 5 8 1 0
BITMAP
30
F8
C0
80
80
80
C0
78
ENDCHAR
STARTCHAR 0064
ENCODING 100
SWIDTH 571 0
DWIDTH 8 0
BBX 6 11 1 0
BITMAP
04
04
04
74
FC
C4
84
84
84
CC
74
ENDCHAR
STARTCHAR 0065
ENCODING 101
SWIDTH 571 0
DWIDTH 8 0
BBX 6 8 1 0
BITMAP
30
FC
8C
8C
F8
80
C0
7C
ENDCHAR
STARTCHAR 0066
ENCODING 102
SWIDTH 357 0
DWIDTH 5 0
BBX 5 11 0 0
BITMAP
38
38
60
78
F8
60
60
60
60
60
60
ENDCHAR
STARTCHAR 0067
ENCODING 103
SWIDTH 571 0
DWIDTH 8 0
BBX 8 11 0 -3
BITMAP
1F
7E
42
42
7E
7C
40
7E
43
C3
7E
ENDCHAR
STARTCHAR 0068
ENCODING 104
SWIDTH 571 0
DWIDTH 8 0
BBX 6 11 1 0
BITMAP
C0
C0
C0
D8
FC
C4
C4
C4
C4
C4
C4
ENDCHAR
STARTCHAR 0069
ENCODING 105
SWIDTH 285 0
DWIDTH 4 0
BBX 2 11 1 0
BITMAP
80
C0
00
C0
C0
C0
C0
C0
C0
C0
C0
ENDCHAR
STARTCHAR 006A
ENCODING 106
SWIDTH 285 0
DWIDTH 4 0
BBX 2 14 1 -3
BITMAP
80
C0
00
C0
C0
C0
C0
C0
C0
C0
C0
C0
C0
80
ENDCHAR
STARTCHAR 006B
ENCODING 107
SWIDTH 571 0
DWIDTH 8 0
BBX 6 11 1 0
BITMAP
C0
C0
C0
CC
CC
D8
F0
F0
D8
C8
CC
ENDCHAR
STARTCHAR 006C
ENCODING 108
SWIDTH 285 0
DWIDTH 4 0
BBX 3 11 1 0
BITMAP
C0
C0
C0
C0
C0
C0
C0
C0
C0
C0
E0
ENDCHAR
STARTCHAR 006D
ENCODING 109
SWIDTH 928 0
DWIDTH 13 0
BBX 11 8 1 0
BITMAP
98C0
FFE0
C660
C420
C420
C420
C420
C420
ENDCHAR
STARTCHAR 006E
ENCODING 110
SWIDTH 571 0
DWIDTH 8 0
BBX 6 8 1 0
BITMAP
98
FC
C4
C4
C4
C4
C4
C4
ENDCHAR
STARTCHAR 006F
ENCODING 111
SWIDTH 571 0
DWIDTH 8 0
BBX 6 8 1 0
BITMAP
30
FC
CC
84
84
84
CC
78
ENDCHAR
STARTCHAR 0070
ENCODING 112
SWIDTH 571 0
DWIDTH 8 0
BBX 7 11 1 -3
BITMAP
98
FC
CC
C4
C6
C4
CC
FC
C0
C0
C0
ENDCHAR
STARTCHAR 0071
ENCODING 113
SWIDTH 571 0
DWIDTH 8 0
BBX 6 11 1 -3
BITMAP
38
FC
C4
84
84
84
CC
74
04
04
04
ENDCHAR
STARTCHAR 0072
ENCODING 114
SWIDTH 428 0
DWIDTH 6 0
BBX 5 8 1 0
BITMAP
98
F8
C0
C0
C0
C0
C0
C0
ENDCHAR
STARTCHAR 0073
ENCODING 115
SWIDTH 500 0
DWIDTH 7 0
BBX 5 8 1 0
BITMAP
70
F8
80
C0
F8
08
08
F8
ENDCHAR
STARTCHAR 0074
ENCODING 116
SWIDTH 357 0
DWIDTH 5 0
BBX 5 10 0 0
BITMAP
20
20
78
F8
60
60
60
60
60
38
ENDCHAR
STARTCHAR 0075
ENCODING 117
SWIDTH 571 0
DWIDTH 8 0
BBX 6 8 1 0
BITMAP
C4
C4
C4
C4
C4
C4
DC
F4
ENDCHAR
STARTCHAR 0076
ENCODING 118
SWIDTH 571 0
DWIDTH 8 0
BBX 8 8 0 0
BITMAP
C3
46
66
64
2C
3C
38
18
ENDCHAR
STARTCHAR 0077
ENCODING 119
SWIDTH 785 0
DWIDTH 11 0
BBX 11 8 0 0
BITMAP
C460
C660
4E60
6E40
6B40
2BC0
39C0
3180
ENDCHAR
STARTCHAR 0078
ENCODING 120
SWIDTH 500 0
DWIDTH 7 0
BBX 7 8 0 0
BITMAP
C2
66
2C
38
18
38
6C
C6
ENDCHAR
STARTCHAR 0079
ENCODING 121
SWIDTH 571 0
DWIDTH 8 0
BBX 8 11 0 -3
BITMAP
C3
C2
66
66
66
24
3C
1C
0C
08
18
ENDCHAR
STARTCHAR 007A
ENCODING 122
SWIDTH 500 0
DWIDTH 7 0
BBX 5 8 1 0
BITMAP
F8
F8
18
30
60
60
C0
F8
ENDCHAR
STARTCHAR 007B
ENCODING 123
SWIDTH 285 0
DWIDTH 4 0
BBX 4 15 0 -3
BITMAP
10
30
60
60
60
60
E0
C0
60
60
60
60
60
70
30
ENDCHAR
STARTCHAR 007C
ENCODING 124
SWIDTH 285 0
DWIDTH 4 0
BBX 1 12 1 -1
BITMAP
80
80
80
80
80
80
80
80
80
80
80
80
ENDCHAR
STARTCHAR 007D
ENCODING 125
SWIDTH 285 0
DWIDTH 4 0
BBX 4 15 0 -3
BITMAP
C0
E0
60
60
60
60
70
30
60
60
60
60
60
60
C0
ENDCHAR
STARTCHAR 007E
ENCODING 126
SWIDTH 428 0
DWIDTH 6 0
BBX 4 2 1 7
BITMAP
F0
20
ENDCHAR
STARTCHAR 00A1
ENCODING 161
SWIDTH 285 0
DWIDTH 4 0
BBX 2 10 1 -2
BITMAP
C0
C0
00
C0
C0
C0
C0
C0
C0
C0
ENDCHAR
STARTCHAR 00A2
ENCODING 162
SWIDTH 500 0
DWIDTH 7 0
BBX 6 10 0 -1
BITMAP
10
10
7C
40
40
C0
40
60
7C
10
ENDCHAR
STARTCHAR 00A3
ENCODING 163
SWIDTH 642 0
DWIDTH 9 0
BBX 7 10 1 0
BITMAP
3E
60
60
60
FC
60
60
60
7E
FE
ENDCHAR
STARTCHAR 00A4
ENCODING 164
SWIDTH 642 0
DWIDTH 9 0
BBX 7 6 1 2
BITMAP
86
7C
44
44
78
C6
ENDCHAR
STARTCHAR 00A5
ENCODING 165
SWIDTH 642 0
DWIDTH 9 0
BBX 8 10 0 0
BITMAP
C3
62
66
34
3C
7E
18
7E
18
18
ENDCHAR
STARTCHAR 00A6
ENCODING 166
SWIDTH 285 0
DWIDTH 4 0
BBX 1 12 1 -1
BITMAP
80
80
80
80
80
00
00
80
80
80
80
80
ENDCHAR
STARTCHAR 00A7
ENCODING 167
SWIDTH 571 0
DWIDTH 8 0
BBX 6 11 1 0
BITMAP
F8
C0
80
F8
FC
8C
CC
FC
0C
0C
F8
ENDCHAR
STARTCHAR 00A8
ENCODING 168
SWIDTH 428 0
DWIDTH 6 0
BBX 4 2 1 9
BITMAP
90
90
ENDCHAR
STARTCHAR 00A9
ENCODING 169
SWIDTH 857 0
DWIDTH 12 0
BBX 10 10 1 0
BITMAP
7F80
C080
9E40
A040
A040
A040
B040
9E80
4080
3F00
ENDCHAR
STARTCHAR 00AA
ENCODING 170
SWIDTH 428 0
DWIDTH 6 0
BBX 5 7 0 4
BITMAP
30
78
08
F8
C8
78
F8
ENDCHAR
STARTCHAR 00AB
ENCODING 171
SWIDTH 642 0
DWIDTH 9 0
BBX 7 6 1 1
BITMAP
32
64
C8
D8
64
32
ENDCHAR
STARTCHAR 00AC
ENCODING 172
SWIDTH 642 0
DWIDTH 9 0
BBX 6 4 1 3
BITMAP
FC
04
04
04
ENDCHAR
STARTCHAR 00AD
ENCODING 173
SWIDTH 357 0
DWIDTH 5 0
BBX 5 2 0 3
BITMAP
F8
F8
ENDCHAR
STARTCHAR 00AE
ENCODING 174
SWIDTH 857 0
DWIDTH 12 0
BBX 10 10 1 0
BITMAP
7F80
C080
9E40
9240
9240
9C40
9440
9280
4080
3F00
ENDCHAR
STARTCHAR 00AF
ENCODING 175
SWIDTH 357 0
DWIDTH 5 0
BBX 3 1 1 9
BITMAP
E0
ENDCHAR
STARTCHAR 00B0
ENCODING 176
SWIDTH 357 0
DWIDTH 5 0
BBX 4 4 0 7
BITMAP
60
90
90
70
ENDCHAR
STARTCHAR 00B1
ENCODING 177
SWIDTH 642 0
DWIDTH 9 0
BBX 6 9 1 1
BITMAP
10
10
FC
FC
10
10
00
FC
FC
ENDCHAR
STARTCHAR 00B2
ENCODING 178
SWIDTH 428 0
DWIDTH 6 0
BBX 5 8 1 4
BITMAP
60
F0
18
10
30
60
C0
F8
ENDCHAR
STARTCHAR 00B3
ENCODING 179
SWIDTH 428 0
DWIDTH 6 0
BBX 5 8 1 4
BITMAP
60
F0
18
10
F0
18
18
F0
ENDCHAR
STARTCHAR 00B4
ENCODING 180
SWIDTH 214 0
DWIDTH 3 0
BBX 3 2 0 9
BITMAP
60
C0
ENDCHAR
STARTCHAR 00B5
ENCODING 181
SWIDTH 571 0
DWIDTH 8 0
BBX 6 12 1 -4
BITMAP
C4
C4
C4
C4
C4
C4
DC
F4
C0
C0
C0
C0
ENDCHAR
STARTCHAR 00B6
ENCODING 182
SWIDTH 571 0
DWIDTH 8 0
BBX 8 14 0 -4
BITMAP
7F
CA
CA
CA
4A
3A
0A
0A
0A
0A
08
08
08
08
ENDCHAR
STARTCHAR 00B7
ENCODING 183
SWIDTH 285 0
DWIDTH 4 0
BBX 2 2 1 4
BITMAP
C0
C0
ENDCHAR
STARTCHAR 00B8
ENCODING 184
SWIDTH 285 0
DWIDTH 4 0
BBX 2 3 1 -3
BITMAP
80
40
80
ENDCHAR
STARTCHAR 00B9
ENCODING 185
SWIDTH 428 0
DWIDTH 6 0
BBX 5 8 1 4
BITMAP
20
E0
20
20
20
20
20
F8
ENDCHAR
STARTCHAR 00BA
ENCODING 186
SWIDTH 428 0
DWIDTH 6 0
BBX 6 7 0 4
BITMAP
30
78
CC
CC
48
78
78
ENDCHAR
STARTCHAR 00BB
ENCODING 187
SWIDTH 642 0
DWIDTH 9 0
BBX 7 6 1 1
BITMAP
90
C8
64
76
CC
98
ENDCHAR
STARTCHAR 00BC
ENCODING 188
SWIDTH 1285 0
DWIDTH 18 0
BBX 16 12 1 0
BITMAP
2000
E020
2060
2040
20C0
208C
2188
F91A
0312
023F
0602
0402
ENDCHAR
STARTCHAR 00BD
ENCODING 189
SWIDTH 1285 0
DWIDTH 18 0
BBX 16 12 1 0
BITMAP
2000
E020
2060
2040
20C4
209F
2183
F903
0306
020C
0618
041F
ENDCHAR
STARTCHAR 00BE
ENCODING 190
SWIDTH 1285 0
DWIDTH 18 0
BBX 16 12 1 0
BITMAP
6000
F820
1860
1840
F0C0
188C
1988
F11A
0312
023F
0602
0402
ENDCHAR
STARTCHAR 00BF
ENCODING 191
SWIDTH 500 0
DWIDTH 7 0
BBX 6 10 1 -2
BITMAP
10
10
00
10
70
C0
C0
C0
C4
7C
ENDCHAR
STARTCHAR 00C0
ENCODING 192
SWIDTH 714 0
DWIDTH 10 0
BBX 9 13 0 0
BITMAP
1000
0800
0000
1C00
1C00
1600
3600
3200
2300
7F00
7F00
6180
C180
ENDCHAR
STARTCHAR 00C1
ENCODING 193
SWIDTH 714 0
DWIDTH 10 0
BBX 9 13 0 0
BITMAP
0600
0400
0800
1C00
1C00
1600
3600
3200
2300
7F00
7F00
6180
C180
ENDCHAR
STARTCHAR 00C2
ENCODING 194
SWIDTH 714 0
DWIDTH 10 0
BBX 9 13 0 0
BITMAP
0C00
1600
0000
1C00
1C00
1600
3600
3200
2300
7F00
7F00
6180
C180
ENDCHAR
STARTCHAR 00C3
ENCODING 195
SWIDTH 714 0
DWIDTH 10 0
BBX 9 13 0 0
BITMAP
1200
2E00
0000
1C00
1C00
1600
3600
3200
2300
7F00
7F00
6180
C180
ENDCHAR
STARTCHAR 00C4
ENCODING 196
SWIDTH 714 0
DWIDTH 10 0
BBX 9 13 0 0
BITMAP
3200
3200
0000
1C00
1C00
1600
3600
3200
2300
7F00
7F00
6180
C180
ENDCHAR
STARTCHAR 00C5
ENCODING 197
SWIDTH 714 0
DWIDTH 10 0
BBX 9 13 0 0
BITMAP
1C00
1400
0C00
1C00
1C00
1600
3600
3200
2300
7F00
7F00
6180
C180
ENDCHAR
STARTCHAR 00C6
ENCODING 198
SWIDTH 1000 0
DWIDTH 14 0
BBX 13 10 0 0
BITMAP
03F8
0700
0500
0D00
19F0
19F0
3F00
3F00
61F8
C1F8
ENDCHAR
STARTCHAR 00C7
ENCODING 199
SWIDTH 571 0
DWIDTH 8 0
BBX 7 13 1 -3
BITMAP
7E
C0
C0
80
80
80
C0
C0
E6
7E
10
08
10
ENDCHAR
STARTCHAR 00C8
ENCODING 200
SWIDTH 571 0
DWIDTH 8 0
BBX 7 13 1 0
BITMAP
60
30
00
FE
C0
C0
C0
FC
FC
C0
C0
FE
7E
ENDCHAR
STARTCHAR 00C9
ENCODING 201
SWIDTH 571 0
DWIDTH 8 0
BBX 7 13 1 0
BITMAP
0C
18
00
FE
C0
C0
C0
FC
FC
C0
C0
FE
7E
ENDCHAR
STARTCHAR 00CA
ENCODING 202
SWIDTH 571 0
DWIDTH 8 0
BBX 7 13 1 0
BITMAP
10
28
40
FE
C0
C0
C0
FC
FC
C0
C0
FE
7E
ENDCHAR
STARTCHAR 00CB
ENCODING 203
SWIDTH 571 0
DWIDTH 8 0
BBX 7 13 1 0
BITMAP
48
48
00
FE
C0
C0
C0
FC
FC
C0
C0
FE
7E
ENDCHAR
STARTCHAR 00CC
ENCODING 204
SWIDTH 285 0
DWIDTH 4 0
BBX 3 13 0 0
BITMAP
80
40
20
60
60
60
60
60
60
60
60
60
60
ENDCHAR
STARTCHAR 00CD
ENCODING 205
SWIDTH 285 0
DWIDTH 4 0
BBX 3 13 1 0
BITMAP
60
40
80
C0
C0
C0
C0
C0
C0
C0
C0
C0
C0
ENDCHAR
STARTCHAR 00CE
ENCODING 206
SWIDTH 285 0
DWIDTH 4 0
BBX 4 13 0 0
BITMAP
60
B0
00
60
60
60
60
60
60
60
60
60
60
ENDCHAR
STARTCHAR 00CF
ENCODING 207
SWIDTH 285 0
DWIDTH 4 0
BBX 4 13 0 0
BITMAP
90
90
00
60
60
60
60
60
60
60
60
60
60
ENDCHAR
STARTCHAR 00D0
ENCODING 208
SWIDTH 642 0
DWIDTH 9 0
BBX 9 10 0 0
BITMAP
7F00
6300
6180
6180
F980
6180
6180
6100
7F00
7E00
ENDCHAR
STARTCHAR 00D1
ENCODING 209
SWIDTH 714 0
DWIDTH 10 0
BBX 8 13 1 0
BITMAP
24
5C
00
C3
E3
E3
F3
DB
CB
CF
C7
C3
C3
ENDCHAR
STARTCHAR 00D2
ENCODING 210
SWIDTH 714 0
DWIDTH 10 0
BBX 8 13 1 0
BITMAP
20
10
08
7E
C7
C3
83
83
83
C3
C3
EE
7E
ENDCHAR
STARTCHAR 00D3
ENCODING 211
SWIDTH 714 0
DWIDTH 10 0
BBX 8 13 1 0
BITMAP
0C
08
10
7E
C7
C3
83
83
83
C3
C3
EE
7E
ENDCHAR
STARTCHAR 00D4
ENCODING 212
SWIDTH 714 0
DWIDTH 10 0
BBX 8 13 1 0
BITMAP
18
2C
00
7E
C7
C3
83
83
83
C3
C3
EE
7E
ENDCHAR
STARTCHAR 00D5
ENCODING 213
SWIDTH 714 0
DWIDTH 10 0
BBX 8 13 1 0
BITMAP
24
5C
00
7E
C7
C3
83
83
83
C3
C3
EE
7E
ENDCHAR
STARTCHAR 00D6
ENCODING 214
SWIDTH 714 0
DWIDTH 10 0
BBX 8 13 1 0
BITMAP
24
24
00
7E
C7
C3
83
83
83
C3
C3
EE
7E
ENDCHAR
STARTCHAR 00D7
ENCODING 215
SWIDTH 642 0
DWIDTH 9 0
BBX 5 6 2 2
BITMAP
90
D8
70
50
F8
90
ENDCHAR
STARTCHAR 00D8
ENCODING 216
SWIDTH 714 0
DWIDTH 10 0
BBX 8 10 1 0
BITMAP
7F
C7
C7
8B
8B
93
E3
E3
EE
FE
ENDCHAR
STARTCHAR 00D9
ENCODING 217
SWIDTH 714 0
DWIDTH 10 0
BBX 8 13 1 0
BITMAP
20
10
00
C3
C3
C3
C3
C3
C3
C3
C3
FE
7C
ENDCHAR
STARTCHAR 00DA
ENCODING 218
SWIDTH 714 0
DWIDTH 10 0
BBX 8 13 1 0
BITMAP
0C
18
00
C3
C3
C3
C3
C3
C3
C3
C3
FE
7C
ENDCHAR
STARTCHAR 00DB
ENCODING 219
SWIDTH 714 0
DWIDTH 10 0
BBX 8 13 1 0
BITMAP
18
28
04
C3
C3
C3
C3
C3
C3
C3
C3
FE
7C
ENDCHAR
STARTCHAR 00DC
ENCODING 220
SWIDTH 714 0
DWIDTH 10 0
BBX 8 13 1 0
BITMAP
6C
6C
00
C3
C3
C3
C3
C3
C3
C3
C3
FE
7C
ENDCHAR
STARTCHAR 00DD
ENCODING 221
SWIDTH 642 0
DWIDTH 9 0
BBX 8 13 0 0
BITMAP
06
0C
80
43
63
26
36
34
1C
18
18
18
18
ENDCHAR
STARTCHAR 00DE
ENCODING 222
SWIDTH 571 0
DWIDTH 8 0
BBX 7 10 1 0
BITMAP
C0
F8
FC
C4
C6
C6
FC
FC
C0
C0
ENDCHAR
STARTCHAR 00DF
ENCODING 223
SWIDTH 571 0
DWIDTH 8 0
BBX 7 11 1 0
BITMAP
38
FC
C4
84
8C
98
98
8E
86
86
BC
ENDCHAR
STARTCHAR 00E0
ENCODING 224
SWIDTH 571 0
DWIDTH 8 0
BBX 6 11 1 0
BITMAP
60
20
10
70
FC
0C
0C
FC
8C
8C
FC
ENDCHAR
STARTCHAR 00E1
ENCODING 225
SWIDTH 571 0
DWIDTH 8 0
BBX 6 11 1 0
BITMAP
18
30
00
70
FC
0C
0C
FC
8C
8C
FC
ENDCHAR
STARTCHAR 00E2
ENCODING 226
SWIDTH 571 0
DWIDTH 8 0
BBX 6 11 1 0
BITMAP
30
58
00
70
FC
0C
0C
FC
8C
8C
FC
ENDCHAR
STARTCHAR 00E3
ENCODING 227
SWIDTH 571 0
DWIDTH 8 0
BBX 6 11 1 0
BITMAP
48
B8
00
70
FC
0C
0C
FC
8C
8C
FC
ENDCHAR
STARTCHAR 00E4
ENCODING 228
SWIDTH 571 0
DWIDTH 8 0
BBX 6 11 1 0
BITMAP
58
58
00
70
FC
0C
0C
FC
8C
8C
FC
ENDCHAR
STARTCHAR 00E5
ENCODING 229
SWIDTH 571 0
DWIDTH 8 0
BBX 6 11 1 0
BITMAP
70
48
30
70
FC
0C
0C
FC
8C
8C
FC
ENDCHAR
STARTCHAR 00E6
ENCODING 230
SWIDTH 857 0
DWIDTH 12 0
BBX 10 8 1 0
BITMAP
7380
FFC0
0C40
0C40
FFC0
8C00
8E00
F7C0
ENDCHAR
STARTCHAR 00E7
ENCODING 231
SWIDTH 500 0
DWIDTH 7 0
BBX 5 11 1 -3
BITMAP
30
F8
C0
80
80
80
C0
78
20
10
20
ENDCHAR
STARTCHAR 00E8
ENCODING 232
SWIDTH 571 0
DWIDTH 8 0
BBX 6 11 1 0
BITMAP
60
20
10
30
FC
8C
8C
F8
80
C0
7C
ENDCHAR
STARTCHAR 00E9
ENCODING 233
SWIDTH 571 0
DWIDTH 8 0
BBX 6 11 1 0
BITMAP
18
30
00
30
FC
8C
8C
F8
80
C0
7C
ENDCHAR
STARTCHAR 00EA
ENCODING 234
SWIDTH 571 0
DWIDTH 8 0
BBX 6 11 1 0
BITMAP
30
58
00
30
FC
8C
8C
F8
80
C0
7C
ENDCHAR
STARTCHAR 00EB
ENCODING 235
SWIDTH 571 0
DWIDTH 8 0
BBX 6 11 1 0
BITMAP
58
58
00
30
FC
8C
8C
F8
80
C0
7C
ENDCHAR
STARTCHAR 00EC
ENCODING 236
SWIDTH 214 0
DWIDTH 3 0
BBX 3 11 0 0
BITMAP
80
40
20
60
60
60
60
60
60
60
60
ENDCHAR
STARTCHAR 00ED
ENCODING 237
SWIDTH 214 0
DWIDTH 3 0
BBX 3 11 1 0
BITMAP
60
C0
00
C0
C0
C0
C0
C0
C0
C0
C0
ENDCHAR
STARTCHAR 00EE
ENCODING 238
SWIDTH 214 0
DWIDTH 3 0
BBX 4 11 0 0
BITMAP
60
B0
00
60
60
60
60
60
60
60
60
ENDCHAR
STARTCHAR 00EF
ENCODING 239
SWIDTH 214 0
DWIDTH 3 0
BBX 4 11 0 0
BITMAP
B0
B0
00
60
60
60
60
60
60
60
60
ENDCHAR
STARTCHAR 00F0
ENCODING 240
SWIDTH 571 0
DWIDTH 8 0
BBX 6 11 1 0
BITMAP
60
3C
6C
0C
FC
CC
84
84
84
CC
78
ENDCHAR
STARTCHAR 00F1
ENCODING 241
SWIDTH 571 0
DWIDTH 8 0
BBX 6 11 1 0
BITMAP
24
58
00
98
FC
C4
C4
C4
C4
C4
C4
ENDCHAR
STARTCHAR 00F2
ENCODING 242
SWIDTH 571 0
DWIDTH 8 0
BBX 6 11 1 0
BITMAP
60
30
00
30
FC
CC
84
84
84
CC
78
ENDCHAR
STARTCHAR 00F3
ENCODING 243
SWIDTH 571 0
DWIDTH 8 0
BBX 6 11 1 0
BITMAP
08
10
20
30
FC
CC
84
84
84
CC
78
ENDCHAR
STARTCHAR 00F4
ENCODING 244
SWIDTH 571 0
DWIDTH 8 0
BBX 6 11 1 0
BITMAP
30
78
00
30
FC
CC
84
84
84
CC
78
ENDCHAR
STARTCHAR 00F5
ENCODING 245
SWIDTH 571 0
DWIDTH 8 0
BBX 6 11 1 0
BITMAP
64
58
00
30
FC
CC
84
84
84
CC
78
ENDCHAR
STARTCHAR 00F6
ENCODING 246
SWIDTH 571 0
DWIDTH 8 0
BBX 6 11 1 0
BITMAP
48
48
00
30
FC
CC
84
84
84
CC
78
ENDCHAR
STARTCHAR 00F7
ENCODING 247
SWIDTH 642 0
DWIDTH 9 0
BBX 6 8 1 1
BITMAP
30
30
00
FC
FC
00
30
30
ENDCHAR
STARTCHAR 00F8
ENCODING 248
SWIDTH 571 0
DWIDTH 8 0
BBX 7 8 1 0
BITMAP
32
FC
CC
94
A4
C4
CC
F8
ENDCHAR
STARTCHAR 00F9
ENCODING 249
SWIDTH 571 0
DWIDTH 8 0
BBX 6 11 1 0
BITMAP
60
30
00
C4
C4
C4
C4
C4
C4
DC
F4
ENDCHAR
STARTCHAR 00FA
ENCODING 250
SWIDTH 571 0
DWIDTH 8 0
BBX 6 11 1 0
BITMAP
08
10
00
C4
C4
C4
C4
C4
C4
DC
F4
ENDCHAR
STARTCHAR 00FB
ENCODING 251
SWIDTH 571 0
DWIDTH 8 0
BBX 6 11 1 0
BITMAP
30
68
00
C4
C4
C4
C4
C4
C4
DC
F4
ENDCHAR
STARTCHAR 00FC
ENCODING 252
SWIDTH 571 0
DWIDTH 8 0
BBX 6 11 1 0
BITMAP
48
48
00
C4
C4
C4
C4
C4
C4
DC
F4
ENDCHAR
STARTCHAR 00FD
ENCODING 253
SWIDTH 571 0
DWIDTH 8 0
BBX 8 14 0 -3
BITMAP
0C
18
00
C3
C2
66
66
66
24
3C
1C
0C
08
18
ENDCHAR
STARTCHAR 00FE
ENCODING 254
SWIDTH 571 0
DWIDTH 8 0
BBX 7 14 1 -3
BITMAP
C0
C0
C0
D8
FC
CC
C4
C6
C4
CC
FC
C0
C0
C0
ENDCHAR
STARTCHAR 00FF
ENCODING 255
SWIDTH 571 0
DWIDTH 8 0
BBX 8 14 0 -3
BITMAP
2C
2C
00
C3
C2
66
66
66
24
3C
1C
0C
08
18
ENDCHAR
ENDFONT
